<svg width="44" height="44" viewBox="0 0 44 44" fill="none" xmlns="http://www.w3.org/2000/svg">
<g clip-path="url(#clip0_814_1546)">
<path d="M33.5 21C39.299 21 44 16.299 44 10.5C44 4.70101 39.299 0 33.5 0C27.701 0 23 4.70101 23 10.5C23 16.299 27.701 21 33.5 21Z" fill="#555555"/>
<path d="M33.5 44C39.299 44 44 39.299 44 33.5C44 27.701 39.299 23 33.5 23C27.701 23 23 27.701 23 33.5C23 39.299 27.701 44 33.5 44Z" fill="#828282"/>
<path d="M10.5 21C16.299 21 21 16.299 21 10.5C21 4.70101 16.299 0 10.5 0C4.70101 0 0 4.70101 0 10.5C0 16.299 4.70101 21 10.5 21Z" fill="#06A0FF"/>
</g>
<defs>
<clipPath id="clip0_814_1546">
<rect width="44" height="44" fill="white"/>
</clipPath>
</defs>
</svg>
